<?xml version="1.0" encoding="UTF-8" standalone="no"?>
<!-- Created with Inkscape (http://www.inkscape.org/) -->

<svg
   xmlns:dc="http://purl.org/dc/elements/1.1/"
   xmlns:cc="http://creativecommons.org/ns#"
   xmlns:rdf="http://www.w3.org/1999/02/22-rdf-syntax-ns#"
   xmlns:svg="http://www.w3.org/2000/svg"
   xmlns="http://www.w3.org/2000/svg"
   xmlns:xlink="http://www.w3.org/1999/xlink"
   xmlns:sodipodi="http://sodipodi.sourceforge.net/DTD/sodipodi-0.dtd"
   xmlns:inkscape="http://www.inkscape.org/namespaces/inkscape"
   width="210mm"
   height="297mm"
   viewBox="0 0 210 297"
   version="1.1"
   id="svg8"
   inkscape:version="0.92.3 (2405546, 2018-03-11)"
   sodipodi:docname="Nestegg icon grey.svg">
  <defs
     id="defs2">
    <polygon
       points="124.332751 0 0.00949246268 0 0.00949246268 165.492385 124.332751 165.492385"
       id="path-1" />
  </defs>
  <sodipodi:namedview
     id="base"
     pagecolor="#ffffff"
     bordercolor="#666666"
     borderopacity="1.0"
     inkscape:pageopacity="0.0"
     inkscape:pageshadow="2"
     inkscape:zoom="0.35"
     inkscape:cx="579.2287"
     inkscape:cy="503.16755"
     inkscape:document-units="mm"
     inkscape:current-layer="layer1"
     showgrid="false"
     inkscape:window-width="1600"
     inkscape:window-height="837"
     inkscape:window-x="-8"
     inkscape:window-y="-8"
     inkscape:window-maximized="1" />
  <metadata
     id="metadata5">
    <rdf:RDF>
      <cc:Work
         rdf:about="">
        <dc:format>image/svg+xml</dc:format>
        <dc:type
           rdf:resource="http://purl.org/dc/dcmitype/StillImage" />
        <dc:title></dc:title>
      </cc:Work>
    </rdf:RDF>
  </metadata>
  <g
     inkscape:label="Layer 1"
     inkscape:groupmode="layer"
     id="layer1">
    <g
       id="Page-1"
       transform="matrix(1.6738726,0,0,1.6738726,-1.2809457,0.00537735)"
       style="fill:#bfbfbf;fill-rule:evenodd;stroke:none;stroke-width:1">
      <g
         transform="translate(-792,-180)"
         id="Powerpoint"
         style="fill:#bfbfbf">
        <g
           transform="translate(596,180)"
           id="nestegg_text_sq_white"
           style="fill:#bfbfbf">
          <g
             transform="translate(196.69584)"
             id="nestegg_icon_white"
             style="fill:#bfbfbf">
            <path
               id="Fill-1"
               d="m 125.49083,91.200892 c 0.35913,2.681462 0.66194,5.401844 0.90163,8.159404 0.35296,4.054704 0.23557,8.250844 -0.3343,12.473724 -6.89801,7.98016 -15.96727,17.48749 -26.727132,26.46768 -0.809074,0.67539 -1.628432,1.34714 -2.456017,2.01525 -9.139501,-0.45358 -17.989324,-2.50474 -26.437932,-5.67254 11.749296,-5.77711 22.525456,-13.29198 31.965391,-21.17088 8.92007,-7.44446 16.70879,-15.245368 23.08836,-22.272638 z"
               inkscape:connector-curvature="0"
               style="fill:#bfbfbf" />
            <path
               id="Fill-3"
               d="m 124.86417,118.17151 c -1.74519,7.18437 -4.80303,14.28141 -9.1327,20.73265 -4.64798,0.94133 -9.24471,1.42213 -13.77641,1.49617 8.87071,-7.45364 16.59931,-15.24221 22.90911,-22.22882 z"
               inkscape:connector-curvature="0"
               style="fill:#bfbfbf" />
            <path
               id="Fill-4"
               d="m 63.232458,137.86346 c -8.538312,3.68957 -17.548083,6.36597 -26.90955,7.54018 8.224903,6.04354 17.194014,11.51278 26.725396,15.69532 v 0.0903 c 0.04809,0.0222 0.09508,0.0451 0.143336,0.0661 0.03528,-0.0149 0.06914,-0.0316 0.103785,-0.047 0.03528,0.0153 0.06993,0.0315 0.10505,0.047 0.04825,-0.0217 0.09587,-0.044 0.143336,-0.0661 v -0.091 c 9.53154,-4.18317 18.501126,-9.65114 26.725396,-15.69468 -9.360834,-1.17421 -18.370605,-3.85061 -26.908917,-7.54018 -0.02152,0.009 -0.04319,0.0174 -0.06486,0.0259 -0.02104,-0.008 -0.04208,-0.0166 -0.06297,-0.0259 z"
               inkscape:connector-curvature="0"
               style="fill:#bfbfbf" />
            <g
               id="Group-9"
               style="fill:#bfbfbf">
              <mask
                 fill="white"
                 id="mask-2">
                <use
                   id="use20"
                   xlink:href="#path-1"
                   x="0"
                   y="0"
                   width="100%"
                   height="100%" />
              </mask>
              <g
                 id="Clip-6"
                 style="fill:#bfbfbf" />
              <path
                 mask="url(#mask-2)"
                 id="Fill-5"
                 d="m 110.69097,145.44763 c -8.74271,9.9269 -21.011878,17.48622 -36.618911,20.04476 -2.290847,-0.74469 -4.554641,-1.57101 -6.78806,-2.47516 10.02768,-4.66523 19.379812,-10.65798 27.848829,-17.14323 5.096032,0.34489 10.288562,0.22497 15.558142,-0.42637 z"
                 inkscape:connector-curvature="0"
                 style="fill:#bfbfbf" />
              <path
                 mask="url(#mask-2)"
                 id="Fill-7"
                 d="m 63.198443,-0.12324381 c -0.03212,0 -0.06423,0 -0.09698,0.001266 C 39.347998,0.11533342 11.015212,34.523612 2.2531942,83.904827 8.9980636,91.624256 17.570865,100.58831 27.811175,109.13453 c 10.449145,8.7212 22.699168,16.82317 35.675206,22.53716 12.945821,-5.71272 24.866456,-13.83384 35.294559,-22.53716 10.24458,-8.55002 18.80504,-17.546187 25.55181,-25.267989 C 115.56266,34.506209 87.237947,0.11533342 63.490653,-0.12197814 h -0.195228 c -0.03212,0 -0.06423,-0.001266 -0.09698,-0.001266 z"
                 inkscape:connector-curvature="0"
                 style="fill:#bfbfbf" />
              <path
                 mask="url(#mask-2)"
                 id="Combined-Shape"
                 d="M 77.757652,3.787153 C 72.947242,1.2751716 68.131537,-0.07560084 63.490653,-0.12197814 h -0.195228 c -0.03212,0 -0.06423,-0.001266 -0.09698,-0.001266 -0.03212,0 -0.06423,0 -0.09698,0.001266 C 39.347998,0.11533342 11.015212,34.523612 2.2531942,83.904827 8.9980636,91.624256 17.570865,100.58831 27.811175,109.13453 c 10.449145,8.7212 22.699168,16.82317 35.675206,22.53716 12.945821,-5.71272 24.866456,-13.83384 35.294559,-22.53716 0.704998,-0.58839 1.40202,-1.17888 2.09103,-1.77093 1.48576,-8.239506 2.27946,-16.917888 2.27946,-25.87974 0,-31.768388 -9.973532,-59.974692 -25.393778,-77.696707 z"
                 inkscape:connector-curvature="0"
                 style="opacity:0.26041667;fill:#bfbfbf" />
              <path
                 mask="url(#mask-2)"
                 id="Fill-8"
                 d="m 1.1012839,91.200892 c -0.35913153,2.681462 -0.66194108,5.401844 -0.90162577,8.159404 -0.3529614,4.054704 -0.23557128,8.250844 0.3342929,12.473724 6.89753977,7.98016 15.96727097,17.48749 26.72713597,26.46768 0.809074,0.67539 1.628432,1.34714 2.456017,2.01525 9.139501,-0.45358 17.989324,-2.50474 26.437932,-5.67254 C 44.40574,128.8673 33.62958,121.35243 24.189643,113.47353 15.269576,106.02907 7.4808516,98.228162 1.1012839,91.200892 Z"
                 inkscape:connector-curvature="0"
                 style="fill:#bfbfbf" />
            </g>
            <path
               id="Fill-10"
               d="m 1.7279446,118.17151 c 1.7451893,7.18437 4.8030279,14.28141 9.1326984,20.73265 4.647984,0.94133 9.244709,1.42213 13.776569,1.49617 C 15.766348,132.94669 8.0377428,125.15812 1.7279446,118.17151 Z"
               inkscape:connector-curvature="0"
               style="fill:#bfbfbf" />
            <path
               id="Fill-11"
               d="m 15.901141,145.44763 c 8.742874,9.9269 21.011882,17.48622 36.618915,20.04476 2.290847,-0.74469 4.554641,-1.57101 6.78806,-2.47516 C 49.281069,158.352 39.928304,152.35925 31.459287,145.874 c -5.096029,0.34489 -10.288564,0.22497 -15.558146,-0.42637 z"
               inkscape:connector-curvature="0"
               style="fill:#bfbfbf" />
            <path
               id="Fill-12"
               d="m 63.425788,164.84959 c -1.153176,0.50436 -1.7001,0.91776 -2.674027,1.49569 1.429407,0.0828 2.070306,0.0883 3.548599,0.0896 0.640267,-0.0402 1.325623,-0.10505 1.99674,-0.18479 -0.908429,-0.39425 -1.611188,-0.87077 -2.871312,-1.40045 z"
               inkscape:connector-curvature="0"
               style="fill:#bfbfbf" />
            <path
               id="Fill-13"
               d="m 99.478003,115.86642 c -8.719934,6.99769 -18.487995,13.58862 -29.040924,18.77736 6.510564,2.44162 13.259072,4.21908 20.194265,5.11391 3.808218,-7.5106 6.796129,-15.51306 8.846659,-23.89127 z"
               inkscape:connector-curvature="0"
               style="fill:#bfbfbf" />
            <path
               id="Fill-14"
               d="m 80.718049,155.78982 c -4.320969,2.63701 -8.805208,5.07372 -13.43405,7.22741 1.875711,0.75892 3.772938,1.46278 5.689941,2.10985 2.745062,-2.96702 5.330809,-6.08419 7.744109,-9.33726 z"
               inkscape:connector-curvature="0"
               style="fill:#bfbfbf" />
          </g>
        </g>
      </g>
    </g>
  </g>
</svg>
